<svg xmlns="http://www.w3.org/2000/svg" viewBox="0 0 48 48">
  <defs>
    <linearGradient id="dynamodb-gradient" x1="0%" y1="0%" x2="100%" y2="100%">
      <stop offset="0%" style="stop-color:#527FFF;stop-opacity:1" />
      <stop offset="100%" style="stop-color:#3C5998;stop-opacity:1" />
    </linearGradient>
  </defs>
  
  <rect width="48" height="48" fill="url(#dynamodb-gradient)" rx="4"/>
  
  <!-- DynamoDB table representation -->
  <rect x="6" y="12" width="36" height="24" fill="#232F3E" rx="2"/>
  
  <!-- Table rows -->
  <rect x="8" y="14" width="32" height="4" fill="#527FFF"/>
  <rect x="8" y="20" width="32" height="4" fill="#7BB3F0"/>
  <rect x="8" y="26" width="32" height="4" fill="#527FFF"/>
  <rect x="8" y="32" width="32" height="4" fill="#7BB3F0"/>
  
  <!-- Key indicators -->
  <circle cx="12" cy="16" r="1.5" fill="#FFD700"/>
  <circle cx="12" cy="22" r="1.5" fill="#FFD700"/>
  <circle cx="12" cy="28" r="1.5" fill="#FFD700"/>
  <circle cx="12" cy="34" r="1.5" fill="#FFD700"/>
  
  <!-- Data indicators -->
  <rect x="18" y="15" width="8" height="2" fill="#232F3E" rx="1"/>
  <rect x="18" y="21" width="12" height="2" fill="#232F3E" rx="1"/>
  <rect x="18" y="27" width="6" height="2" fill="#232F3E" rx="1"/>
  <rect x="18" y="33" width="10" height="2" fill="#232F3E" rx="1"/>
</svg>
